<svg width="24" height="24" viewBox="0 0 24 24" fill="none" xmlns="http://www.w3.org/2000/svg">
  <path
    d="M22.0529 11.3328L18.7009 14.6849C17.4553 15.9276 15.7676 16.6255 14.008 16.6255C12.2485 16.6255 10.5608 15.9276 9.31515 14.6849C9.04875 14.4181 8.89918 14.0565 8.89932 13.6795C8.89945 13.3025 9.04927 12.941 9.31586 12.6744C9.58244 12.4078 9.94397 12.258 10.321 12.2578C10.698 12.2577 11.0596 12.4073 11.3264 12.6737C12.0382 13.3838 13.0026 13.7826 14.008 13.7826C15.0135 13.7826 15.9779 13.3838 16.6897 12.6737L20.0417 9.32151C20.3939 8.96938 20.6734 8.5513 20.864 8.09117C21.0547 7.63103 21.1528 7.13784 21.1529 6.63977C21.1529 6.1417 21.0548 5.6485 20.8642 5.18833C20.6736 4.72817 20.3943 4.31005 20.0421 3.95787C19.6899 3.60568 19.2718 3.32632 18.8116 3.13574C18.3514 2.94516 17.8582 2.84709 17.3601 2.84714C16.8621 2.84718 16.3689 2.94534 15.9088 3.13601C15.4486 3.32667 15.0306 3.60611 14.6784 3.95836L13.2979 5.33873C13.1659 5.47094 13.0091 5.57584 12.8365 5.64743C12.664 5.71903 12.479 5.75591 12.2921 5.75597C12.1053 5.75604 11.9202 5.71929 11.7476 5.64781C11.575 5.57634 11.4181 5.47155 11.286 5.33943C11.1539 5.20731 11.0491 5.05045 10.9776 4.87782C10.9061 4.70519 10.8694 4.52016 10.8695 4.33331C10.8695 4.14647 10.9064 3.96147 10.978 3.78888C11.0496 3.6163 11.1545 3.45951 11.2867 3.32749L12.6672 1.94712C13.2833 1.33014 14.015 0.840616 14.8203 0.506521C15.6257 0.172426 16.489 0.000307057 17.361 4.10464e-07C18.2329 -0.000306236 19.0963 0.171205 19.902 0.504734C20.7076 0.838262 21.4396 1.32727 22.0561 1.94381C22.6727 2.56036 23.1617 3.29235 23.4952 4.09796C23.8288 4.90357 24.0003 5.76702 24 6.63895C23.9997 7.51087 23.8276 8.3742 23.4935 9.17959C23.1594 9.98497 22.6699 10.7166 22.0529 11.3328ZM6.7164 17.6305C6.85632 17.9104 7.60432 18.6765 7.8358 18.8899C8.56355 19.5607 9.09512 20.1492 9.09512 20.1492C8.38388 20.8602 7.63937 21.1585 6.63368 21.1584C5.62799 21.1583 4.66351 20.7588 3.95237 20.0477C3.24123 19.3366 2.84167 18.3721 2.84158 17.3664C2.84149 16.3607 3.24087 15.3962 3.95188 14.6849L7.30391 11.3328C8.01569 10.6226 8.98009 10.2238 9.98555 10.2238C10.991 10.2238 11.9554 10.6226 12.6672 11.3328C12.934 11.5992 13.2956 11.7487 13.6726 11.7486C14.0496 11.7485 14.4111 11.5986 14.6777 11.3321C14.9443 11.0655 15.0941 10.7039 15.0943 10.3269C15.0944 9.94992 14.9448 9.58829 14.6784 9.32151C13.4328 8.07875 11.7451 7.38081 9.98555 7.38081C8.22599 7.38081 6.53828 8.07875 5.29267 9.32151L1.94064 12.6737C0.697421 13.9186 -0.000604749 15.6062 3.93135e-07 17.3656C0.000605535 19.125 0.699791 20.8121 1.94387 22.0562C3.18795 23.3003 4.87511 23.9994 6.63449 24C8.39388 24.0006 10.0815 23.3025 11.3264 22.0593C11.3264 22.0593 11.8001 21.7353 12.0335 21.2686C12.2601 20.8157 12.3134 20.5305 12.3134 19.8693C12.3134 19.2081 11.4738 18.4701 11.4738 18.4701C11.4738 18.4701 9.63422 16.492 8.53542 15.9514C8.03554 15.7055 7.8358 15.8115 7.8358 15.8115C7.50022 15.8115 7.14728 16.2097 6.85632 16.6255C6.66199 16.9033 6.57647 17.3507 6.7164 17.6305Z"
    fill="#007E7E" />
</svg>